<svg width="19" height="20" viewBox="0 0 19 20" fill="none" xmlns="http://www.w3.org/2000/svg">
<path d="M0 5.7166C0 5.7166 2.55136 6.8076 3.48894 14.1776L9.03488 19.9451C9.03488 19.9451 13.4671 13.24 3.49463 0.000183105C3.49463 0.000183105 6.71082 6.01208 6.23918 11.8762C6.2335 11.8762 5.36979 7.62017 0 5.7166Z" fill="white"/>
<path d="M14.7214 0.000183105C14.7214 0.000183105 12.0734 3.01749 9.72095 8.01793C9.72095 8.01793 10.8858 10.0977 11.2324 12.024L11.9768 9.97265C11.9768 9.97265 11.8518 6.23369 14.7214 0.000183105Z" fill="white"/>
<path d="M12.0034 17.0568L14.9014 14.4599C14.9014 14.4599 14.5036 8.72079 18.1403 5.77167C18.1403 5.77167 12.0034 8.41963 12.0034 17.0568Z" fill="white"/>
</svg>
