<svg width="19" height="18" viewBox="0 0 19 18" fill="none" xmlns="http://www.w3.org/2000/svg">
<path d="M9.69688 5.0183L12.8567 1.25457L12.1168 0H9.69688H7.28209L6.54224 1.25457L9.69688 5.0183Z" fill="white"/>
<path d="M12.2028 15.7184L9.70062 17.9976L7.19849 15.7184L9.06353 6.28299L9.70062 7.08278L10.3326 6.28299L12.2028 15.7184Z" fill="white"/>
<path d="M0.699951 3.7334H5.96111L7.89809 5.63617L6.56224 10.1422L3.43329 8.84056L5.21099 6.28437C5.21099 6.28437 2.20534 6.28437 0.699951 3.7334Z" fill="white"/>
<path d="M18.6969 3.7334H13.4358L11.4988 5.63617L12.8346 10.1422L15.9636 8.84056L14.1859 6.28437C14.1859 6.28437 17.1915 6.28437 18.6969 3.7334Z" fill="white"/>
</svg>
